<svg data-v-70b83f88="" version="1.0" xmlns="http://www.w3.org/2000/svg" xmlns:xlink="http://www.w3.org/1999/xlink"
     width="2100" height="1544" viewBox="0 0 340.000000 250.000000" preserveAspectRatio="xMidYMid meet"
     color-interpolation-filters="sRGB" style="">
    <g data-v-70b83f88="" fill="#094" class="icon-text-wrapper icon-svg-group iconsvg"
       transform="translate(80.57500451803207,74.67189025878906)">
        <g class="iconsvg-imagesvg" transform="translate(59.42499542236328,0)">
            <g>
                <rect fill="#094" fill-opacity="0" stroke-width="2" x="0" y="0" width="60" height="59.73477758751145"
                      class="image-rect"></rect>
                <svg x="0" y="0" width="60" height="59.73477758751145" filtersec="colorsb3404012892"
                     class="image-svg-svg primary" style="overflow: visible;">
                    <svg xmlns="http://www.w3.org/2000/svg" viewBox="0 0 497.489990234375 495.28997802734375">
                        <g>
                            <g>
                                <path d="M0 248l159.67 159.63L296.31 271l-73.54-73.55-38.6 38.55 35 35-59.46 59.46L77.19 248 248 77.2l172.3 172.34-168.58 168.57-37.78-37.78-38.59 38.6 76.37 76.36 245.77-245.75L248 0z"
                                      fill="#094"></path>
                                <path d="M100.89 241.92l64.18 64.18 25.41-25.41-38.77-38.77L236 157.66l101.86 101.89-98.59 98.59 25.41 25.41 124-124L236 106.84z"
                                      fill="#eee800"></path>
                            </g>
                        </g>
                    </svg>
                </svg> <!---->
            </g>
        </g>
        <g transform="translate(0,66.73477935791016)">
            <g data-gra="path-name" fill-rule="" class="tp-name iconsvg-namesvg" transform="translate(0,0)">
                <g transform="scale(1)">
                    <g>
                        <path d="M5.85-21.11L8.91-20.12Q8.47-18.63 8.01-17.33 7.55-16.02 7.03-14.79L7.03-14.79 7.03 2.53 3.84 2.53 3.84-8.94Q3.5-8.41 3.14-7.91 2.77-7.4 2.38-6.87L2.38-6.87 0.52-9.77Q1.23-10.71 1.99-12.01 2.74-13.3 3.45-14.8 4.16-16.31 4.78-17.93 5.41-19.55 5.85-21.11L5.85-21.11ZM8.89-16.44L11.03-16.44 11.03-20.75 14.22-20.62 14.22-16.44 17.61-16.44 17.61-20.75 20.78-20.62 20.78-16.44 23.18-16.44 23.18-13.33 20.78-13.33 20.78-8.34 24.04-8.34 24.04-5.17 8.18-5.17 8.18-8.34 11.03-8.34 11.03-13.33 8.89-13.33 8.89-16.44ZM17.61-13.33L14.22-13.33 14.22-8.34 17.61-8.34 17.61-13.33ZM16.67-2.93L18.76-5.15Q19.42-4.57 20.17-3.88 20.93-3.19 21.68-2.48 22.42-1.78 23.09-1.1 23.75-0.42 24.22 0.13L24.22 0.13 22.03 2.69Q21.59 2.12 20.93 1.36 20.28 0.6 19.53-0.17 18.79-0.94 18.04-1.67 17.3-2.4 16.67-2.93L16.67-2.93ZM9.43 2.64L7.37 0.26Q8.07-0.21 8.85-0.84 9.62-1.46 10.36-2.18 11.11-2.9 11.79-3.65 12.47-4.39 12.99-5.07L12.99-5.07 15.26-2.98Q14.66-2.22 13.97-1.46 13.28-0.71 12.53 0.01 11.79 0.73 11 1.4 10.22 2.06 9.43 2.64L9.43 2.64ZM32.74-5.78L32.74-2.46Q33.21-2.77 33.76-3.19 34.31-3.61 34.76-3.89L34.76-3.89 35.57-0.71Q35.38-0.57 34.97-0.27 34.55 0.03 34.04 0.38 33.53 0.73 32.98 1.1 32.43 1.46 31.99 1.78L31.99 1.78Q31.62 2.01 31.29 2.25 30.97 2.48 30.71 2.69L30.71 2.69 28.93 0.13Q29.48-0.24 29.63-0.57 29.79-0.91 29.74-1.52L29.74-1.52 29.74-5.78 27.75-5.78 27.75-8.68 29.74-8.68 29.74-10.61 28.82-10.61 28.82-12.2Q28.64-11.94 28.47-11.69 28.3-11.45 28.12-11.21L28.12-11.21 26.11-13.25Q26.68-13.98 27.31-14.91 27.94-15.84 28.51-16.86 29.09-17.87 29.58-18.95 30.08-20.02 30.42-21.06L30.42-21.06 33.16-20.36Q33.01-19.83 32.78-19.3 32.56-18.76 32.3-18.19L32.3-18.19 35.04-18.19 35.04-15.16 30.71-15.16Q30.47-14.74 30.22-14.35 29.97-13.95 29.71-13.56L29.71-13.56 34.76-13.56 34.76-10.61 32.74-10.61 32.74-8.68 35.1-8.68 35.1-5.78 32.74-5.78ZM47.67-20.12L50.1-18.45Q49.86-18.03 49.49-17.51 49.13-16.99 48.68-16.42 48.24-15.86 47.76-15.29 47.27-14.71 46.8-14.19L46.8-14.19 49.26-14.19 49.26-1.1Q49.26-0.08 49.17 0.6 49.08 1.28 48.76 1.7 48.45 2.12 47.86 2.33 47.27 2.53 46.28 2.64L46.28 2.64 44.66 2.8 43.72-0.18 45.34-0.37Q45.91-0.44 46.1-0.72 46.28-0.99 46.28-1.99L46.28-1.99 46.28-2.25 38.81-2.25 38.81 2.61 35.83 2.61 35.83-14.19 38.52-14.19Q38.18-14.71 37.76-15.27 37.34-15.84 36.9-16.4 36.45-16.96 36.01-17.48 35.57-18.01 35.2-18.42L35.2-18.42 37.4-20.2Q37.79-19.76 38.22-19.23 38.65-18.71 39.11-18.15 39.56-17.59 40-17.03 40.43-16.46 40.79-15.97L40.79-15.97 38.57-14.19 41.05-14.19 41.05-20.85 44.11-20.72 44.11-14.19 46.12-14.19 44.22-15.73Q44.66-16.18 45.14-16.74 45.63-17.3 46.1-17.9 46.57-18.5 46.97-19.08 47.38-19.65 47.67-20.12L47.67-20.12ZM46.28-11.26L38.81-11.26 38.81-9.67 46.28-9.67 46.28-11.26ZM38.81-5.17L46.28-5.17 46.28-6.77 38.81-6.77 38.81-5.17ZM70.27-1.52L75.68-1.52 75.68 1.72 61.02 1.72 61.02-1.52 66.82-1.52 66.82-10.53 62.64-10.53 62.64-13.75 66.82-13.75 66.82-20.8 70.27-20.67 70.27-13.75 74.66-13.75 74.66-10.53 70.27-10.53 70.27-1.52ZM64.34-7.08L62.67-4.18Q62.09-4.76 61.28-5.5 60.47-6.25 59.66-6.93L59.66-6.93 59.66 2.27 56.37 2.27 56.37-5.75Q55.11-4.49 53.83-3.48L53.83-3.48 52.11-6.43Q54.41-8.26 56.01-10.03 57.62-11.81 58.72-13.61L58.72-13.61 53.6-13.61 53.6-16.78 56.71-16.78 55.98-20.3 59.24-20.46 59.9-16.78 62.27-16.78 62.27-13.61Q61.83-12.78 61.29-11.94 60.76-11.11 60.13-10.24L60.13-10.24Q60.6-9.9 61.16-9.49 61.72-9.07 62.29-8.64 62.85-8.21 63.38-7.8 63.92-7.4 64.34-7.08L64.34-7.08ZM101.79-0.37L100.61 2.4Q99.49 2.06 98.3 1.66 97.11 1.25 95.93 0.78 94.76 0.31 93.65-0.24 92.53-0.78 91.59-1.46L91.59-1.46 91.59 2.61 88.35 2.61 88.35-1.33Q87.33-0.6 86.13-0.01 84.93 0.57 83.74 1.06 82.55 1.54 81.43 1.89 80.3 2.25 79.42 2.51L79.42 2.51 78.14-0.21Q79.05-0.44 80.14-0.73 81.22-1.02 82.34-1.41 83.47-1.8 84.58-2.27 85.69-2.74 86.66-3.32L86.66-3.32 79.26-3.32 79.26-5.88 88.35-5.88 88.35-6.9 81.25-6.9 81.25-12.83Q80.93-12.49 80.59-12.18 80.25-11.86 79.89-11.55L79.89-11.55 77.95-13.67Q79.13-14.9 79.93-15.77 80.72-16.65 81.32-17.46 81.93-18.27 82.43-19.12 82.94-19.97 83.6-21.17L83.6-21.17 86.24-20.07Q86.08-19.73 85.9-19.36 85.71-19 85.51-18.63L85.51-18.63 89.82-18.63 89.27-20.78 92.51-20.96 93.01-18.63 100.03-18.63 100.03-16.41 92.77-16.41 92.77-15.44 99.3-15.44 99.3-13.33 92.77-13.33 92.77-12.33 99.3-12.33 99.3-10.19 92.77-10.19 92.77-9.22 100.17-9.22 100.17-6.9 91.59-6.9 91.59-5.88 100.71-5.88 100.71-3.32 93.21-3.32Q94.97-2.33 97.06-1.62 99.15-0.91 101.79-0.37L101.79-0.37ZM89.66-15.44L89.66-16.41 84.41-16.41 84.41-15.44 89.66-15.44ZM89.66-12.33L89.66-13.33 84.41-13.33 84.41-12.33 89.66-12.33ZM84.41-10.19L84.41-9.22 89.66-9.22 89.66-10.19 84.41-10.19ZM104.4-16.96L104.4-19.83 116.63-19.83 116.63-16.96 113.21-16.96 113.21-15.08 116.37-15.08 116.37 1.78 105.1 1.78 105.1-15.08 108.16-15.08 108.14-16.96 104.4-16.96ZM124.52-4.76L127.47-4.05Q127.42-3.45 127.37-2.73 127.32-2.01 127.24-1.41L127.24-1.41Q127.08-0.31 126.91 0.37 126.74 1.05 126.39 1.44 126.04 1.83 125.46 1.99 124.89 2.14 123.95 2.22L123.95 2.22Q123.16 2.27 122.29 2.27 121.41 2.27 120.63 2.22L120.63 2.22Q119.71 2.14 119.11 1.97 118.51 1.8 118.16 1.41 117.8 1.02 117.67 0.34 117.54-0.34 117.54-1.41L117.54-1.41 117.54-12.1 122.87-12.1 122.87-16.59 117.73-16.59 117.73-19.76 126.09-19.76 126.09-8.86 120.63-8.86 120.63-2.09Q120.63-1.75 120.64-1.55 120.65-1.36 120.73-1.24 120.81-1.12 120.98-1.07 121.15-1.02 121.49-0.99L121.49-0.99Q121.83-0.94 122.26-0.94 122.69-0.94 123.01-0.99L123.01-0.99Q123.42-1.05 123.67-1.11 123.92-1.18 124.05-1.32 124.18-1.46 124.23-1.72 124.29-1.99 124.34-2.46L124.34-2.46Q124.39-3.01 124.44-3.68 124.49-4.36 124.52-4.76L124.52-4.76ZM111.11-15.08L111.11-16.96 110.25-16.96 110.28-15.08 111.11-15.08ZM113.89-6.61L113.15-6.61Q112.03-6.61 111.57-7.11 111.11-7.6 111.11-8.78L111.11-8.78 111.11-12.26 110.28-12.26 110.28-12.02Q110.28-10.92 110.2-10.07 110.12-9.22 109.91-8.52 109.7-7.81 109.36-7.17 109.02-6.53 108.48-5.83L108.48-5.83 107.48-6.56 107.48-5.46 113.89-5.46 113.89-6.61ZM108.16-12.26L107.48-12.26 107.48-8.36Q107.9-9.09 108.03-9.97 108.16-10.84 108.16-12.26L108.16-12.26ZM113.89-12.26L113.21-12.26 113.21-9.7Q113.21-9.25 113.35-9.11 113.49-8.96 113.89-8.94L113.89-8.94 113.89-12.26ZM107.48-1.1L113.89-1.1 113.89-2.72 107.48-2.72 107.48-1.1ZM151.59-16.54L151.59-4.57 143.23-4.57 143.23 2.72 139.81 2.72 139.81-4.57 131.26-4.57 131.26-16.54 139.81-16.54 139.81-20.8 143.23-20.67 143.23-16.54 151.59-16.54ZM134.74-7.87L139.81-7.87 139.81-13.22 134.74-13.22 134.74-7.87ZM148.14-7.87L148.14-13.22 143.23-13.22 143.23-7.87 148.14-7.87ZM163.72-19.26L166.46-21.14Q166.99-20.54 167.69-19.65 168.4-18.76 169.14-17.76 169.89-16.75 170.59-15.71 171.3-14.66 171.82-13.72L171.82-13.72 169.02-11.52Q168.48-12.54 167.78-13.64 167.09-14.74 166.37-15.78 165.65-16.83 164.96-17.73 164.27-18.63 163.72-19.26L163.72-19.26ZM165.13-15.52L165.1-2.4Q165.1-1.91 165.27-1.57 165.44-1.23 165.84-1.18L165.84-1.18Q166.83-1.07 167.77-1.07 168.71-1.07 169.76-1.2L169.76-1.2Q170.25-1.25 170.44-1.58 170.62-1.91 170.72-2.48L170.72-2.48Q170.8-2.93 170.85-3.42 170.91-3.92 170.96-4.36L170.96-4.36Q171.01-4.86 171.04-5.41L171.04-5.41 174.49-4.42Q174.43-4 174.37-3.28 174.3-2.56 174.15-1.57L174.15-1.57Q173.99-0.63 173.82 0.04 173.65 0.71 173.38 1.16 173.1 1.62 172.68 1.87 172.26 2.12 171.64 2.2L171.64 2.2Q170.93 2.3 169.85 2.34 168.76 2.38 167.64 2.38 166.52 2.38 165.51 2.33 164.5 2.27 163.93 2.2L163.93 2.2Q162.6 1.99 162.11 1.05 161.63 0.1 161.63-1.25L161.63-1.25 161.63-15.68 165.13-15.52ZM172.58-12.73L175.56-14.09Q175.77-13.67 176.08-12.97 176.39-12.28 176.75-11.42 177.1-10.56 177.48-9.6 177.86-8.65 178.21-7.7 178.56-6.74 178.86-5.84 179.16-4.94 179.37-4.23L179.37-4.23 176.18-2.77Q175.87-3.89 175.4-5.33 174.93-6.77 174.41-8.18 173.89-9.59 173.39-10.81 172.89-12.02 172.58-12.73L172.58-12.73ZM157.5-13.22L161.05-12.47Q160.9-11.52 160.65-10.23 160.4-8.94 160.09-7.5 159.77-6.06 159.39-4.63 159.02-3.19 158.6-1.96L158.6-1.96 154.97-3.14Q155.46-4.31 155.88-5.71 156.3-7.11 156.64-8.49 156.98-9.88 157.2-11.12 157.42-12.36 157.5-13.22L157.5-13.22Z"
                              transform="translate(-0.5199999809265137, 21.170000076293945)"></path>
                    </g> <!----> <!----> <!----> <!----> <!----> <!----> <!---->
                </g>
            </g>
            <g data-gra="path-slogan" fill-rule="" class="tp-slogan iconsvg-slogansvg" fill="#094"
               transform="translate(1.7549972534179688,29.969999313354492)">
                <rect width="0"></rect>
                <rect x="178.33999633789062" width="0"></rect>
                <g transform="translate(0,0)">
                    <g transform="scale(1)">
                        <path d="M1.95 0L0.41 0L0.41-3.79L1.97-3.79Q3.50-3.71 3.56-1.95L3.56-1.95Q3.48-0.04 1.95 0L1.95 0ZM1.88-3.37L0.93-3.37L0.93-0.43L1.93-0.43Q3.00-0.50 3.04-1.90L3.04-1.90Q3.02-3.33 1.88-3.37L1.88-3.37ZM4.21-3.79L4.73-3.79L4.73 0L4.21 0L4.21-3.79ZM8.30-2.69L8.30-2.69L7.82-2.69Q7.78-3.42 6.87-3.46L6.87-3.46Q6.02-3.44 6.02-2.79L6.02-2.79Q6.02-2.38 6.48-2.32L6.48-2.32L7.55-2.07Q8.40-1.86 8.40-1.03L8.40-1.03Q8.38 0.02 6.91 0.06L6.91 0.06Q6.11 0.06 5.77-0.27L5.77-0.27Q5.36-0.58 5.38-1.22L5.38-1.22L5.88-1.22Q5.90-0.35 6.91-0.33L6.91-0.33Q7.91-0.35 7.93-0.97L7.93-0.97Q8.01-1.49 7.10-1.66L7.10-1.66L6.31-1.82Q5.51-2.05 5.51-2.73L5.51-2.73Q5.57-3.85 6.83-3.89L6.83-3.89Q8.26-3.89 8.30-2.69ZM9.95-3.35L8.66-3.35L8.66-3.79L11.73-3.79L11.73-3.35L10.44-3.35L10.44 0L9.95 0L9.95-3.35ZM13.93-1.64L12.69-1.64L12.69 0L12.17 0L12.17-3.79L13.93-3.79Q15.19-3.79 15.19-2.77L15.19-2.77Q15.19-2.15 14.65-1.86L14.65-1.86Q15.11-1.74 15.11-1.14L15.11-1.14L15.15-0.46Q15.13-0.17 15.34-0.08L15.34-0.08L15.34 0L14.70 0Q14.63-0.27 14.61-0.95L14.61-0.95Q14.63-1.64 13.93-1.64L13.93-1.64ZM13.97-3.37L12.69-3.37L12.69-2.07L13.89-2.07Q14.65-2.07 14.65-2.73L14.65-2.73Q14.65-3.37 13.97-3.37L13.97-3.37ZM15.93-3.79L16.44-3.79L16.44 0L15.93 0L15.93-3.79ZM18.67-3.37L17.76-3.37L17.76-2.19L18.67-2.19Q19.48-2.17 19.46-2.82L19.46-2.82Q19.46-3.37 18.67-3.37L18.67-3.37ZM18.88 0L17.24 0L17.24-3.79L18.92-3.79Q19.93-3.75 19.97-2.84L19.97-2.84Q19.97-2.28 19.48-2.05L19.48-2.05Q20.18-1.80 20.18-1.12L20.18-1.12Q20.12-0.04 18.88 0L18.88 0ZM18.75-1.76L17.76-1.76L17.76-0.43L18.86-0.43Q19.64-0.46 19.66-1.12L19.66-1.12Q19.66-1.76 18.75-1.76L18.75-1.76ZM23.19-1.41L23.19-3.79L23.71-3.79L23.71-1.35Q23.65 0.02 22.16 0.06L22.16 0.06Q20.77 0.02 20.71-1.26L20.71-1.26L20.71-3.79L21.23-3.79L21.23-1.41Q21.25-0.37 22.18-0.35L22.18-0.35Q23.19-0.37 23.19-1.41L23.19-1.41ZM25.40-3.35L24.11-3.35L24.11-3.79L27.18-3.79L27.18-3.35L25.89-3.35L25.89 0L25.40 0L25.40-3.35ZM27.64-3.79L28.16-3.79L28.16 0L27.64 0L27.64-3.79ZM31.96-1.88L31.96-1.88Q31.87-3.37 30.63-3.46L30.63-3.46Q29.37-3.39 29.31-1.88L29.31-1.88Q29.37-0.41 30.63-0.35L30.63-0.35Q31.87-0.43 31.96-1.88ZM32.47-1.88L32.47-1.88Q32.35 0 30.63 0.06L30.63 0.06Q28.89 0 28.77-1.88L28.77-1.88Q28.87-3.85 30.63-3.89L30.63-3.89Q32.35-3.83 32.47-1.88ZM33.62-3.79L35.53-0.72L35.53-3.79L36.02-3.79L36.02 0L35.44 0L33.52-3.06L33.50-3.06L33.50 0L33.00 0L33.00-3.79L33.62-3.79ZM41.30-2.67L41.30-2.67L40.80-2.67Q40.62-3.44 39.75-3.46L39.75-3.46Q38.55-3.39 38.51-1.93L38.51-1.93Q38.51-0.35 39.77-0.35L39.77-0.35Q40.64-0.37 40.85-1.41L40.85-1.41L41.34-1.41Q41.12 0.02 39.67 0.06L39.67 0.06Q38.01 0 37.97-1.90L37.97-1.90Q38.05-3.81 39.75-3.89L39.75-3.89Q41.09-3.85 41.30-2.67ZM42.45-0.46L44.73-0.46L44.73 0L41.93 0L41.93-3.79L44.69-3.79L44.69-3.35L42.45-3.35L42.45-2.17L44.52-2.17L44.52-1.72L42.45-1.72L42.45-0.46ZM45.94-3.79L47.84-0.72L47.84-3.79L48.34-3.79L48.34 0L47.76 0L45.83-3.06L45.81-3.06L45.81 0L45.32 0L45.32-3.79L45.94-3.79ZM50.03-3.35L48.74-3.35L48.74-3.79L51.81-3.79L51.81-3.35L50.52-3.35L50.52 0L50.03 0L50.03-3.35ZM52.77-0.46L55.04-0.46L55.04 0L52.25 0L52.25-3.79L55.00-3.79L55.00-3.35L52.77-3.35L52.77-2.17L54.84-2.17L54.84-1.72L52.77-1.72L52.77-0.46ZM57.46-1.64L56.21-1.64L56.21 0L55.70 0L55.70-3.79L57.46-3.79Q58.72-3.79 58.72-2.77L58.72-2.77Q58.72-2.15 58.18-1.86L58.18-1.86Q58.64-1.74 58.64-1.14L58.64-1.14L58.68-0.46Q58.66-0.17 58.86-0.08L58.86-0.08L58.86 0L58.22 0Q58.16-0.27 58.14-0.95L58.14-0.95Q58.16-1.64 57.46-1.64L57.46-1.64ZM57.50-3.37L56.21-3.37L56.21-2.07L57.41-2.07Q58.18-2.07 58.18-2.73L58.18-2.73Q58.18-3.37 57.50-3.37L57.50-3.37ZM63.77-1.88L63.77-1.88Q63.69-3.37 62.44-3.46L62.44-3.46Q61.18-3.39 61.12-1.88L61.12-1.88Q61.18-0.41 62.44-0.35L62.44-0.35Q63.69-0.43 63.77-1.88ZM64.29-1.88L64.29-1.88Q64.16 0 62.44 0.06L62.44 0.06Q60.71 0 60.58-1.88L60.58-1.88Q60.68-3.85 62.44-3.89L62.44-3.89Q64.16-3.83 64.29-1.88ZM67.26-1.72L65.39-1.72L65.39 0L64.88 0L64.88-3.79L67.50-3.79L67.50-3.35L65.39-3.35L65.39-2.17L67.26-2.17L67.26-1.72ZM72.12-2.69L72.12-2.69L71.64-2.69Q71.60-3.42 70.69-3.46L70.69-3.46Q69.84-3.44 69.84-2.79L69.84-2.79Q69.84-2.38 70.30-2.32L70.30-2.32L71.37-2.07Q72.22-1.86 72.22-1.03L72.22-1.03Q72.20 0.02 70.73 0.06L70.73 0.06Q69.93 0.06 69.59-0.27L69.59-0.27Q69.18-0.58 69.20-1.22L69.20-1.22L69.70-1.22Q69.72-0.35 70.73-0.33L70.73-0.33Q71.73-0.35 71.75-0.97L71.75-0.97Q71.83-1.49 70.92-1.66L70.92-1.66L70.13-1.82Q69.33-2.05 69.33-2.73L69.33-2.73Q69.39-3.85 70.65-3.89L70.65-3.89Q72.08-3.89 72.12-2.69ZM75.30-1.41L75.30-3.79L75.81-3.79L75.81-1.35Q75.75 0.02 74.26 0.06L74.26 0.06Q72.88 0.02 72.81-1.26L72.81-1.26L72.81-3.79L73.33-3.79L73.33-1.41Q73.35-0.37 74.28-0.35L74.28-0.35Q75.30-0.37 75.30-1.41L75.30-1.41ZM78.14-3.37L77.11-3.37L77.11-2.05L78.12-2.05Q78.91-2.05 78.91-2.73L78.91-2.73Q78.91-3.35 78.14-3.37L78.14-3.37ZM78.31-1.59L77.11-1.59L77.11 0L76.59 0L76.59-3.79L78.31-3.79Q79.38-3.75 79.43-2.73L79.43-2.73Q79.36-1.64 78.31-1.59L78.31-1.59ZM81.59-3.37L80.55-3.37L80.55-2.05L81.57-2.05Q82.35-2.05 82.35-2.73L82.35-2.73Q82.35-3.35 81.59-3.37L81.59-3.37ZM81.75-1.59L80.55-1.59L80.55 0L80.04 0L80.04-3.79L81.75-3.79Q82.83-3.75 82.87-2.73L82.87-2.73Q82.81-1.64 81.75-1.59L81.75-1.59ZM83.42-3.79L83.94-3.79L83.94-0.46L85.86-0.46L85.86 0L83.42 0L83.42-3.79ZM89.35-3.79L87.92-1.53L87.92 0L87.40 0L87.40-1.53L85.98-3.79L86.58-3.79L87.65-1.97L88.75-3.79L89.35-3.79ZM93.63 0L93.26-1.10L91.73-1.10L91.34 0L90.82 0L92.25-3.79L92.83-3.79L94.19 0L93.63 0ZM92.50-3.23L91.90-1.55L93.08-1.55L92.52-3.23L92.50-3.23ZM95.20-3.79L97.10-0.72L97.10-3.79L97.60-3.79L97.60 0L97.02 0L95.09-3.06L95.07-3.06L95.07 0L94.58 0L94.58-3.79L95.20-3.79ZM99.86 0L98.33 0L98.33-3.79L99.89-3.79Q101.42-3.71 101.48-1.95L101.48-1.95Q101.40-0.04 99.86 0L99.86 0ZM99.80-3.37L98.85-3.37L98.85-0.43L99.84-0.43Q100.92-0.50 100.96-1.90L100.96-1.90Q100.94-3.33 99.80-3.37L99.80-3.37ZM107.09-3.79L107.09 0L106.59 0L106.59-2.24Q106.59-2.55 106.59-3.19L106.59-3.19L105.51 0L105.00 0L103.94-3.19L103.92-3.19Q103.92-2.96 103.94-2.50L103.94-2.50Q103.94-2.28 103.94-2.24L103.94-2.24L103.94 0L103.42 0L103.42-3.79L104.17-3.79L105.27-0.58L106.34-3.79L107.09-3.79ZM110.27 0L109.89-1.10L108.36-1.10L107.97 0L107.45 0L108.88-3.79L109.46-3.79L110.82 0L110.27 0ZM109.13-3.23L108.53-1.55L109.71-1.55L109.15-3.23L109.13-3.23ZM113.03-1.64L111.79-1.64L111.79 0L111.27 0L111.27-3.79L113.03-3.79Q114.29-3.79 114.29-2.77L114.29-2.77Q114.29-2.15 113.75-1.86L113.75-1.86Q114.21-1.74 114.21-1.14L114.21-1.14L114.25-0.46Q114.23-0.17 114.44-0.08L114.44-0.08L114.44 0L113.79 0Q113.73-0.27 113.71-0.95L113.71-0.95Q113.73-1.64 113.03-1.64L113.03-1.64ZM113.07-3.37L111.79-3.37L111.79-2.07L112.99-2.07Q113.75-2.07 113.75-2.73L113.75-2.73Q113.75-3.37 113.07-3.37L113.07-3.37ZM116.06-1.90L115.46-1.35L115.46 0L114.94 0L114.94-3.79L115.46-3.79L115.46-1.95L117.30-3.79L118.03-3.79L116.43-2.26L118.07 0L117.38 0L116.06-1.90ZM118.97-0.46L121.25-0.46L121.25 0L118.45 0L118.45-3.79L121.20-3.79L121.20-3.35L118.97-3.35L118.97-2.17L121.04-2.17L121.04-1.72L118.97-1.72L118.97-0.46ZM122.81-3.35L121.52-3.35L121.52-3.79L124.59-3.79L124.59-3.35L123.30-3.35L123.30 0L122.81 0L122.81-3.35ZM125.05-3.79L125.57-3.79L125.57 0L125.05 0L125.05-3.79ZM126.99-3.79L128.89-0.72L128.89-3.79L129.39-3.79L129.39 0L128.81 0L126.88-3.06L126.86-3.06L126.86 0L126.37 0L126.37-3.79L126.99-3.79ZM132.94-1.59L131.78-1.59L131.78-2.03L133.44-2.03L133.44 0L133.10 0L132.98-0.48Q132.55 0.04 131.74 0.06L131.74 0.06Q130.97 0.06 130.56-0.33L130.56-0.33Q129.94-0.91 129.96-1.93L129.96-1.93Q130.10-3.81 131.76-3.89L131.76-3.89Q133.17-3.81 133.37-2.65L133.37-2.65L132.88-2.65Q132.67-3.44 131.74-3.46L131.74-3.46Q130.56-3.37 130.50-1.90L130.50-1.90Q130.50-0.33 131.76-0.33L131.76-0.33Q132.21-0.33 132.55-0.58L132.55-0.58Q132.96-0.91 132.94-1.59L132.94-1.59ZM138.71-2.67L138.71-2.67L138.22-2.67Q138.03-3.44 137.16-3.46L137.16-3.46Q135.96-3.39 135.92-1.93L135.92-1.93Q135.92-0.35 137.18-0.35L137.18-0.35Q138.05-0.37 138.26-1.41L138.26-1.41L138.75-1.41Q138.53 0.02 137.08 0.06L137.08 0.06Q135.42 0 135.38-1.90L135.38-1.90Q135.46-3.81 137.16-3.89L137.16-3.89Q138.51-3.85 138.71-2.67ZM142.28-1.88L142.28-1.88Q142.20-3.37 140.96-3.46L140.96-3.46Q139.70-3.39 139.63-1.88L139.63-1.88Q139.70-0.41 140.96-0.35L140.96-0.35Q142.20-0.43 142.28-1.88ZM142.80-1.88L142.80-1.88Q142.68 0 140.96 0.06L140.96 0.06Q139.22 0 139.10-1.88L139.10-1.88Q139.20-3.85 140.96-3.89L140.96-3.89Q142.68-3.83 142.80-1.88ZM146.33-1.88L146.33-1.88Q146.25-3.37 145.01-3.46L145.01-3.46Q143.74-3.39 143.68-1.88L143.68-1.88Q143.74-0.41 145.01-0.35L145.01-0.35Q146.25-0.43 146.33-1.88ZM146.85-1.88L146.85-1.88Q146.72 0 145.01 0.06L145.01 0.06Q143.27 0 143.14-1.88L143.14-1.88Q143.25-3.85 145.01-3.89L145.01-3.89Q146.72-3.83 146.85-1.88ZM148.99-3.37L147.95-3.37L147.95-2.05L148.97-2.05Q149.76-2.05 149.76-2.73L149.76-2.73Q149.76-3.35 148.99-3.37L148.99-3.37ZM149.16-1.59L147.95-1.59L147.95 0L147.44 0L147.44-3.79L149.16-3.79Q150.23-3.75 150.27-2.73L150.27-2.73Q150.21-1.64 149.16-1.59L149.16-1.59ZM151.40-0.46L153.68-0.46L153.68 0L150.88 0L150.88-3.79L153.64-3.79L153.64-3.35L151.40-3.35L151.40-2.17L153.47-2.17L153.47-1.72L151.40-1.72L151.40-0.46ZM156.09-1.64L154.85-1.64L154.85 0L154.33 0L154.33-3.79L156.09-3.79Q157.35-3.79 157.35-2.77L157.35-2.77Q157.35-2.15 156.81-1.86L156.81-1.86Q157.27-1.74 157.27-1.14L157.27-1.14L157.31-0.46Q157.29-0.17 157.50-0.08L157.50-0.08L157.50 0L156.85 0Q156.79-0.27 156.77-0.95L156.77-0.95Q156.79-1.64 156.09-1.64L156.09-1.64ZM156.13-3.37L154.85-3.37L154.85-2.07L156.05-2.07Q156.81-2.07 156.81-2.73L156.81-2.73Q156.81-3.37 156.13-3.37L156.13-3.37ZM160.51 0L160.14-1.10L158.60-1.10L158.21 0L157.69 0L159.12-3.79L159.70-3.79L161.07 0L160.51 0ZM159.37-3.23L158.77-1.55L159.95-1.55L159.39-3.23L159.37-3.23ZM162.42-3.35L161.14-3.35L161.14-3.79L164.20-3.79L164.20-3.35L162.92-3.35L162.92 0L162.42 0L162.42-3.35ZM164.67-3.79L165.19-3.79L165.19 0L164.67 0L164.67-3.79ZM166.27-3.79L167.35-0.56L168.45-3.79L169.02-3.79L167.64 0L167.08 0L165.69-3.79L166.27-3.79ZM170.01-0.46L172.28-0.46L172.28 0L169.49 0L169.49-3.79L172.24-3.79L172.24-3.35L170.01-3.35L170.01-2.17L172.08-2.17L172.08-1.72L170.01-1.72L170.01-0.46ZM175.65-2.69L175.65-2.69L175.17-2.69Q175.13-3.42 174.22-3.46L174.22-3.46Q173.37-3.44 173.37-2.79L173.37-2.79Q173.37-2.38 173.83-2.32L173.83-2.32L174.90-2.07Q175.75-1.86 175.75-1.03L175.75-1.03Q175.73 0.02 174.26 0.06L174.26 0.06Q173.45 0.06 173.12-0.27L173.12-0.27Q172.71-0.58 172.73-1.22L172.73-1.22L173.23-1.22Q173.25-0.35 174.26-0.33L174.26-0.33Q175.25-0.35 175.28-0.97L175.28-0.97Q175.36-1.49 174.45-1.66L174.45-1.66L173.66-1.82Q172.85-2.05 172.85-2.73L172.85-2.73Q172.92-3.85 174.18-3.89L174.18-3.89Q175.61-3.89 175.65-2.69Z"
                              transform="translate(-0.4139834406623735, 3.891444342226311)"></path>
                    </g>
                </g>
            </g>
        </g>
    </g>
    <defs v-gra="od"></defs>
</svg>